<svg xmlns="http://www.w3.org/2000/svg" viewBox="0 0 1920 1080">
  <defs>
    <pattern id="food-pattern" x="0" y="0" width="200" height="200" patternUnits="userSpaceOnUse">
      <!-- Tomato -->
      <circle cx="50" cy="50" r="15" fill="#FF6B6B" opacity="0.7"/>
      <circle cx="50" cy="45" r="3" fill="#228B22" opacity="0.8"/>
      
      <!-- Carrot -->
      <polygon points="150,40 160,40 165,60 155,65 145,60" fill="#FFA500" opacity="0.6"/>
      <polygon points="155,40 157,35 159,40" fill="#228B22" opacity="0.7"/>
      
      <!-- Broccoli -->
      <circle cx="50" cy="150" r="12" fill="#228B22" opacity="0.6"/>
      <circle cx="45" cy="145" r="8" fill="#32CD32" opacity="0.5"/>
      <circle cx="55" cy="145" r="8" fill="#32CD32" opacity="0.5"/>
      <rect x="47" y="160" width="6" height="15" fill="#90EE90" opacity="0.6"/>
      
      <!-- Bell Pepper -->
      <ellipse cx="150" cy="150" rx="12" ry="18" fill="#FFD700" opacity="0.6"/>
      <rect x="147" y="132" width="6" height="8" fill="#228B22" opacity="0.7"/>
    </pattern>
    
    <linearGradient id="heroGradient" x1="0%" y1="0%" x2="100%" y2="100%">
      <stop offset="0%" style="stop-color:#667eea;stop-opacity:1" />
      <stop offset="50%" style="stop-color:#764ba2;stop-opacity:1" />
      <stop offset="100%" style="stop-color:#f093fb;stop-opacity:1" />
    </linearGradient>
  </defs>
  
  <rect width="100%" height="100%" fill="url(#heroGradient)"/>
  <rect width="100%" height="100%" fill="url(#food-pattern)" opacity="0.3"/>
  
  <!-- Floating particles -->
  <circle cx="200" cy="200" r="3" fill="#FFE66D" opacity="0.4">
    <animate attributeName="cy" values="200;150;200" dur="4s" repeatCount="indefinite"/>
  </circle>
  <circle cx="1500" cy="300" r="4" fill="#4ECDC4" opacity="0.5">
    <animate attributeName="cy" values="300;250;300" dur="5s" repeatCount="indefinite"/>
  </circle>
  <circle cx="800" cy="600" r="2" fill="#FF6B35" opacity="0.6">
    <animate attributeName="cy" values="600;550;600" dur="3s" repeatCount="indefinite"/>
  </circle>
  <circle cx="1200" cy="800" r="3" fill="#FFE66D" opacity="0.4">
    <animate attributeName="cy" values="800;750;800" dur="6s" repeatCount="indefinite"/>
  </circle>
</svg>
